<svg id="visual" viewBox="0 0 900 600" width="900" height="600" xmlns="http://www.w3.org/2000/svg" xmlns:xlink="http://www.w3.org/1999/xlink" version="1.1"><rect x="0" y="0" width="900" height="600" fill="#002233"></rect><path d="M0 405L21.5 415.5C43 426 86 447 128.8 445.2C171.7 443.3 214.3 418.7 257.2 406.7C300 394.7 343 395.3 385.8 413C428.7 430.7 471.3 465.3 514.2 477C557 488.7 600 477.3 642.8 462.3C685.7 447.3 728.3 428.7 771.2 423.3C814 418 857 426 878.5 430L900 434L900 601L878.5 601C857 601 814 601 771.2 601C728.3 601 685.7 601 642.8 601C600 601 557 601 514.2 601C471.3 601 428.7 601 385.8 601C343 601 300 601 257.2 601C214.3 601 171.7 601 128.8 601C86 601 43 601 21.5 601L0 601Z" fill="#0066FF" stroke-linecap="round" stroke-linejoin="miter"></path></svg>